<svg width="50" height="50" viewBox="0 0 50 50" fill="none" xmlns="http://www.w3.org/2000/svg">
<path fill-rule="evenodd" clip-rule="evenodd" d="M27.9347 12.6211C29.5565 12.4426 30.5948 9.54495 30.2539 6.14895C29.913 2.75295 28.3219 0.144625 26.7001 0.323092C25.0783 0.501559 24.0399 3.39924 24.3808 6.79524C24.7218 10.1912 26.3129 12.7996 27.9347 12.6211ZM35.4781 15.7782C36.5121 16.13 38.1673 13.7824 39.1751 10.5349C40.183 7.28728 40.1618 4.36946 39.1279 4.01772C38.0939 3.66599 36.4387 6.01354 35.4309 9.26112C34.423 12.5087 34.4442 15.4265 35.4781 15.7782ZM18.5964 7.99935C19.9234 11.1187 19.3888 14.3977 17.4023 15.3234C15.4158 16.249 12.7297 14.4707 11.4027 11.3514C10.0757 8.23206 10.6104 4.95299 12.5968 4.02736C14.5833 3.10173 17.2694 4.88005 18.5964 7.99935ZM22.0653 37.3784C20.4435 37.5569 19.4052 40.4546 19.7461 43.8505C20.087 47.2465 21.6781 49.8549 23.2999 49.6764C24.9217 49.4979 25.9601 46.6003 25.6192 43.2043C25.2782 39.8083 23.6871 37.1999 22.0653 37.3784ZM10.8249 39.4646C11.8327 36.2171 13.4879 33.8695 14.5219 34.2213C15.5558 34.573 15.577 37.4908 14.5691 40.7384C13.5613 43.986 11.9061 46.3335 10.8721 45.9818C9.83818 45.63 9.81702 42.7122 10.8249 39.4646ZM32.5977 34.6761C30.6112 35.6018 30.0766 38.8809 31.4036 42.0002C32.7306 45.1195 35.4167 46.8978 37.4032 45.9721C39.3896 45.0465 39.9243 41.7674 38.5973 38.6481C37.2703 35.5288 34.5842 33.7505 32.5977 34.6761ZM50 25.2808C50 28.5945 47.3137 31.2808 44 31.2808C40.6863 31.2808 38 28.5945 38 25.2808C38 21.967 40.6863 19.2808 44 19.2808C47.3137 19.2808 50 21.967 50 25.2808ZM6 31.2808C9.31371 31.2808 12 28.5945 12 25.2808C12 21.967 9.31371 19.2808 6 19.2808C2.68629 19.2808 0 21.967 0 25.2808C0 28.5945 2.68629 31.2808 6 31.2808Z" fill="#2C2C2C"/>
</svg>
