<?xml version="1.0" encoding="UTF-8" standalone="no"?>
<svg width="304px" height="307px" viewBox="0 0 304 307" version="1.1" xmlns="http://www.w3.org/2000/svg" xmlns:xlink="http://www.w3.org/1999/xlink">
    <!-- Generator: Sketch 3.8.2 (29753) - http://www.bohemiancoding.com/sketch -->
    <title>Voxel</title>
    <desc>Created with Sketch.</desc>
    <defs>
        <rect id="path-1" x="0" y="0" width="250" height="250"></rect>
        <mask id="mask-2" maskContentUnits="userSpaceOnUse" maskUnits="objectBoundingBox" x="0" y="0" width="250" height="250" fill="white">
            <use xlink:href="#path-1"></use>
        </mask>
    </defs>
    <g id="Page-2" stroke="none" stroke-width="1" fill="none" fill-rule="evenodd">
        <g id="Top-Left-Copy-2" transform="translate(-250.000000, -149.000000)">
            <g id="Voxel" transform="translate(250.000000, 150.000000)">
                <g id="Lower-Layer" transform="translate(7.000000, 7.000000)" stroke="#434343" stroke-width="10" stroke-linecap="square">
                    <path d="M51.5,293 L292,293" id="Line"></path>
                    <path d="M292,52 L292,292.5" id="Line-Copy-3"></path>
                    <path d="M0.5,243.5 L47,291" id="Line-Copy"></path>
                    <path d="M243,-5.55111512e-17 L289.5,47.5" id="Line-Copy-2"></path>
                </g>
                <g id="Top-Layer">
                    <use id="Rectangle-1" stroke="#434343" mask="url(#mask-2)" stroke-width="20" xlink:href="#path-1"></use>
                    <path d="M106,94.52 L112.54,94.52 L130.84,137 L122.2,137 L118.24,127.28 L99.82,127.28 L95.98,137 L87.52,137 L106,94.52 Z M115.6,120.8 L109.06,103.52 L102.4,120.8 L115.6,120.8 Z M134.8,91.64 L142,91.64 L142,120.32 L142.18,120.32 L153.1,108.2 L162.34,108.2 L149.86,121.22 L163.12,137 L153.58,137 L142.18,122.24 L142,122.24 L142,137 L134.8,137 L134.8,91.64 Z" id="Ak" fill="#434343"></path>
                    <path d="M106.5,171.5 L144.5,171.5" id="Line" stroke="#434343" stroke-width="5" stroke-linecap="square"></path>
                </g>
            </g>
        </g>
    </g>
</svg>