<?xml version="1.0" encoding="utf-8"?>
<!-- Generator: Adobe Illustrator 17.0.0, SVG Export Plug-In . SVG Version: 6.00 Build 0)  -->
<!DOCTYPE svg PUBLIC "-//W3C//DTD SVG 1.1//EN" "http://www.w3.org/Graphics/SVG/1.1/DTD/svg11.dtd">
<svg version="1.1" id="Layer_1" xmlns="http://www.w3.org/2000/svg" xmlns:xlink="http://www.w3.org/1999/xlink" x="0px" y="0px"
	 width="200px" height="30px" viewBox="0 0 200 30" enable-background="new 0 0 200 30" xml:space="preserve">
<g>
	<path fill="#007BBD" d="M57.056,9.119l-0.388,3.129c-0.233-0.077-0.724-0.129-1.215-0.129c-1.474,0-2.638,1.06-3.051,1.81v7.887
		H49.04V9.274h3.233v1.939c0-1.034,1.397-2.198,3.646-2.198C56.409,9.015,56.694,9.067,57.056,9.119"/>
	<path fill="#007BBD" d="M64.891,9.016c3.802,0,6.672,2.922,6.672,6.543s-2.87,6.517-6.672,6.517c-3.802,0-6.672-2.896-6.672-6.517
		C58.219,11.938,61.09,9.016,64.891,9.016 M64.891,18.971c1.965,0,3.31-1.526,3.31-3.413c0-1.888-1.345-3.44-3.31-3.44
		c-1.965,0-3.31,1.552-3.31,3.44C61.581,17.445,62.926,18.971,64.891,18.971"/>
	<path fill="#007BBD" d="M80.305,9.016c3.802,0,6.672,2.922,6.672,6.543s-2.87,6.517-6.672,6.517s-6.672-2.896-6.672-6.517
		S76.503,9.016,80.305,9.016 M80.305,18.971c1.965,0,3.31-1.526,3.31-3.413c0-1.888-1.345-3.44-3.31-3.44s-3.31,1.552-3.31,3.44
		C76.995,17.445,78.339,18.971,80.305,18.971"/>
	<path fill="#007BBD" d="M93.055,9.274v1.939c0.052-1.034,1.371-2.198,3.388-2.198c1.707,0,3.233,0.776,4.215,1.965
		c1.009-1.06,2.586-1.965,4.448-1.965c1.733,0,3.388,0.776,4.396,2.017c0.802,0.983,1.267,2.276,1.267,4.138v6.646h-3.362V15.04
		c0-1.138-0.233-1.707-0.621-2.146c-0.517-0.569-1.241-0.776-1.888-0.776c-1.448,0-2.586,1.009-3.026,1.655
		c0.052,0.414,0.103,0.879,0.103,1.396v6.646h-3.362v-6.776c0-1.138-0.233-1.707-0.621-2.146c-0.517-0.569-1.241-0.776-1.888-0.776
		c-1.422,0-2.457,0.957-2.922,1.552v8.146H89.82V9.274H93.055z"/>
	<path fill="#4BBDFF" d="M122.666,6.3c-0.284-0.078-0.698-0.129-1.009-0.129c-0.827,0-1.474,0.233-1.888,0.724
		c-0.284,0.362-0.465,0.828-0.465,1.992v0.388h3.879v2.845h-3.879v9.698h-3.362V12.12h-3.233V9.274h3.233V8.757
		c0-2.017,0.465-3.233,1.345-4.086c0.879-0.854,2.198-1.474,3.905-1.474c0.672,0,1.293,0.052,1.991,0.233L122.666,6.3z"/>
	<path fill="#4BBDFF" d="M131.149,9.016c3.802,0,6.672,2.922,6.672,6.543s-2.87,6.517-6.672,6.517s-6.672-2.896-6.672-6.517
		C124.477,11.938,127.347,9.016,131.149,9.016 M131.149,18.971c1.965,0,3.31-1.526,3.31-3.413c0-1.888-1.345-3.44-3.31-3.44
		s-3.31,1.552-3.31,3.44C127.839,17.445,129.184,18.971,131.149,18.971"/>
	<path fill="#4BBDFF" d="M148.683,9.119l-0.388,3.129c-0.233-0.077-0.724-0.129-1.215-0.129c-1.474,0-2.638,1.06-3.052,1.81v7.887
		h-3.362V9.274h3.233v1.939c0-1.034,1.397-2.198,3.646-2.198C148.036,9.015,148.321,9.067,148.683,9.119"/>
	<path fill="#007BBD" d="M161.484,21.816c-0.44,0.155-1.448,0.259-2.095,0.259c-2.017,0-3.491-0.673-4.345-1.81
		c-0.646-0.853-0.931-1.965-0.931-3.75v-4.397h-3.491V9.273h3.491V3.431h3.362v5.843h4.138v2.845h-4.138v4.784
		c0,0.776,0.129,1.241,0.414,1.577c0.336,0.388,0.879,0.621,1.707,0.621c0.491,0,1.138-0.078,1.371-0.129L161.484,21.816z"/>
	<path fill="#007BBD" d="M175.139,19.824c-1.215,1.448-3.207,2.25-5.146,2.25c-3.75,0-6.569-2.586-6.569-6.517
		c0-3.491,2.379-6.543,6.103-6.543c3.465,0,5.922,2.922,5.922,6.413c0,0.336-0.026,0.672-0.078,0.957h-8.689
		c0.181,1.758,1.603,2.974,3.388,2.974c1.422,0,2.56-0.801,3.155-1.448L175.139,19.824z M172.01,13.929
		c-0.103-1.112-1.112-2.198-2.483-2.198c-1.397,0-2.534,1.06-2.689,2.198H172.01z"/>
	<path fill="#007BBD" d="M187.345,19.876c0,0.957-1.241,2.198-3.491,2.198c-1.862,0-3.62-0.828-4.732-2.12
		c-0.983-1.138-1.603-2.69-1.603-4.397c0-3.698,2.741-6.543,6.155-6.543c2.379,0,3.62,1.241,3.672,2.198V9.274h3.232v12.542h-3.232
		v-1.939H187.345z M187.216,13.67c-0.698-0.931-1.81-1.552-3.103-1.552c-1.965,0-3.233,1.629-3.233,3.439
		c0,1.966,1.422,3.413,3.31,3.413c1.267,0,2.379-0.621,3.026-1.551V13.67z"/>
</g>
<g>
	<polygon fill="#007BBD" points="15.215,29.992 4.733,29.992 0,25.26 0.016,14.793 	"/>
	<polygon fill="#007BBD" points="14.806,0 25.289,0 40.095,14.806 40.079,25.273 	"/>
	<polygon fill="#4BBDFF" points="25.289,0 14.806,0 0,14.806 0.016,25.273 	"/>
	<polygon fill="#007BBD" points="14.806,19.934 25.289,19.934 35.355,30 24.872,30 	"/>
	<polygon fill="#4BBDFF" points="25.289,19.934 14.806,19.934 4.754,29.986 15.223,30 	"/>
	<polygon fill="#4BBDFF" points="24.883,29.988 35.366,29.988 40.095,25.26 40.079,14.793 	"/>
</g>
</svg>
